<svg width="86" height="70" viewBox="0 0 86 70" fill="none" xmlns="http://www.w3.org/2000/svg">
<g filter="url(#filter0_d)">
<path fill-rule="evenodd" clip-rule="evenodd" d="M4 45.875C4 36.968 11.22 29.749 20.125 29.749C29.031 29.749 36.251 36.968 36.25 45.875C36.25 54.78 29.03 62 20.125 62C11.22 62 4 54.78 4 45.875ZM14.9579 51.0421C16.3283 52.4125 18.187 53.1823 20.125 53.182C22.063 53.1823 23.9217 52.4125 25.2921 51.0421C26.6625 49.6718 27.4323 47.813 27.432 45.875C27.432 41.8395 24.1605 38.568 20.125 38.568C16.0895 38.568 12.818 41.8395 12.818 45.875C12.8177 47.813 13.5875 49.6718 14.9579 51.0421ZM64.854 45.874C60.4015 45.874 56.792 49.4835 56.792 53.936C56.792 56.8163 58.3286 59.4778 60.823 60.9179C63.3174 62.3581 66.3906 62.3581 68.885 60.9179C71.3794 59.4778 72.916 56.8163 72.916 53.936C72.9165 51.7977 72.0673 49.7468 70.5553 48.2347C69.0433 46.7227 66.9923 45.8735 64.854 45.874ZM59.792 53.936C59.7914 56.7322 62.0578 58.9995 64.854 59C67.6502 59.0006 69.9174 56.7342 69.918 53.938C69.9186 51.1418 67.6522 48.8746 64.856 48.874C62.0598 48.8735 59.7926 51.1398 59.792 53.936Z" fill="white"/>
<path fill-rule="evenodd" clip-rule="evenodd" d="M79.4371 31.313C79.8751 34.625 81.8981 49.727 81.8981 49.727C81.8981 49.727 82.6411 52.875 79.0001 52.875H77.0451C76.6561 46.473 71.3551 41.396 64.8541 41.396C58.3531 41.396 53.0531 46.473 52.6631 52.875H42.4991C43.1901 50.664 43.5631 48.313 43.5631 45.875C43.5631 32.929 33.0691 22.436 20.1251 22.436C15.4652 22.4285 10.9098 23.8168 7.04612 26.422C7.00112 23.463 7.00412 12.537 9.31212 6.167C9.31212 6.167 10.3751 3.625 12.7501 3C15.1251 2.375 37.5001 0 37.5001 0C37.5001 0 39.8141 0.062 40.6261 1.875C41.4381 3.688 51.1881 23.75 51.1881 23.75L63.0001 25.128V19.833H67.0001V14H70.0001V25.946L75.8121 26.625C75.8121 26.625 78.8901 27.172 79.4371 31.313ZM20.1251 19.833H27.0831V6.167H20.1251V19.833ZM37.0831 19.833H30.1251V6.167H37.0831V19.833ZM53.0001 36H57.0161V29H53.0001V36ZM64.0161 36H60.0001V29H64.0161V36ZM67.0001 36H71.0161V29H67.0001V36Z" fill="white"/>
</g>
<defs>
<filter id="filter0_d" x="0" y="0" width="85.9605" height="70" filterUnits="userSpaceOnUse" color-interpolation-filters="sRGB">
<feFlood flood-opacity="0" result="BackgroundImageFix"/>
<feColorMatrix in="SourceAlpha" type="matrix" values="0 0 0 0 0 0 0 0 0 0 0 0 0 0 0 0 0 0 127 0"/>
<feOffset dy="4"/>
<feGaussianBlur stdDeviation="2"/>
<feColorMatrix type="matrix" values="0 0 0 0 0 0 0 0 0 0 0 0 0 0 0 0 0 0 0.25 0"/>
<feBlend mode="normal" in2="BackgroundImageFix" result="effect1_dropShadow"/>
<feBlend mode="normal" in="SourceGraphic" in2="effect1_dropShadow" result="shape"/>
</filter>
</defs>
</svg>
